<?xml version="1.0" standalone="no"?>
<!DOCTYPE svg PUBLIC "-//W3C//DTD SVG 20010904//EN"
 "http://www.w3.org/TR/2001/REC-SVG-20010904/DTD/svg10.dtd">
<svg version="1.0" xmlns="http://www.w3.org/2000/svg"
 width="500.000000pt" height="500.000000pt" viewBox="0 0 500.000000 500.000000"
 preserveAspectRatio="xMidYMid meet">
<metadata>
Created by potrace 1.11, written by Peter Selinger 2001-2013
</metadata>
<g transform="translate(0.000000,500.000000) scale(0.100000,-0.100000)"
fill="#000000" stroke="none">
<path d="M142 3788 c3 -1063 3 -1071 23 -1074 82 -11 112 -17 207 -41 99 -25
113 -26 166 -15 72 15 126 14 217 -2 69 -13 82 -11 119 17 19 14 19 15 -12 31
-35 18 -42 36 -14 36 9 0 24 5 32 10 13 9 11 13 -10 30 -22 18 -23 20 -5 17
32 -3 31 17 -2 33 -17 8 -38 23 -49 34 -18 18 -18 18 3 12 27 -9 39 9 16 23
-11 6 -13 11 -5 12 6 1 18 2 25 3 15 2 12 57 -5 67 -6 4 -15 6 -19 3 -15 -9
-18 14 -4 26 18 15 20 51 4 67 -9 9 -2 16 25 27 25 10 36 21 36 36 0 11 7 23
16 27 11 4 14 13 9 30 -5 23 -5 23 19 8 23 -16 24 -15 19 4 -3 12 -9 21 -14
21 -5 0 -8 16 -7 35 1 20 -4 41 -10 47 -7 7 -12 20 -12 30 0 10 -4 18 -9 18
-5 0 -11 12 -13 27 -4 33 -60 67 -95 58 -17 -4 -23 -1 -23 10 0 9 -6 15 -12
14 -18 -2 -58 12 -58 20 0 3 12 17 27 31 25 24 25 25 6 28 -18 3 -32 27 -33
55 0 4 11 7 25 7 14 0 25 5 25 10 0 6 -7 10 -15 10 -20 0 -35 32 -35 73 0 44
-20 60 -75 60 -35 0 -46 5 -51 19 -3 10 1 25 9 33 9 8 13 24 10 35 -3 11 -1
20 5 20 5 0 12 8 15 19 2 10 25 29 50 41 25 13 45 26 44 30 -1 4 9 17 23 29
l25 22 -27 -4 c-15 -2 -25 0 -22 5 6 10 -8 15 -63 22 -63 8 -98 30 -148 94
-41 53 -45 61 -45 115 0 71 34 131 86 153 49 20 150 20 199 -1 54 -23 112 -86
120 -129 4 -19 15 -42 25 -51 19 -17 50 -11 50 10 0 15 43 45 65 45 8 0 15 6
15 14 0 15 17 15 51 1 10 -4 19 0 22 9 4 10 1 16 -8 16 -8 0 -15 7 -15 15 0 8
5 15 11 15 5 0 8 3 5 8 -2 4 2 18 10 32 7 14 13 19 14 12 0 -7 5 -10 10 -7 6
4 7 11 4 17 -4 7 5 8 27 3 32 -7 33 -6 14 9 -17 13 -18 17 -5 25 8 6 15 18 15
28 0 18 16 21 48 8 16 -7 17 -4 12 21 -4 19 -3 25 3 16 6 -9 18 -11 35 -6 21
5 27 12 27 33 0 18 3 22 9 12 6 -9 11 -10 15 -2 5 7 18 3 40 -14 18 -14 36
-22 39 -18 11 10 8 63 -3 63 -5 0 -10 4 -10 9 0 9 50 -6 86 -26 24 -14 34 -8
34 19 0 11 5 16 10 13 6 -4 10 5 10 20 0 17 -4 24 -12 19 -7 -5 -8 -3 -3 6 6
10 10 10 20 -3 13 -18 41 -6 33 14 -3 8 -7 18 -9 24 -2 5 11 10 29 11 17 1 32
-2 32 -7 0 -21 19 -6 29 22 11 31 39 36 33 5 -3 -17 13 -22 23 -6 3 5 12 7 20
3 10 -3 15 1 15 13 0 9 3 14 6 11 4 -4 15 3 25 15 l19 21 20 -23 c19 -22 24
-38 21 -70 -1 -12 0 -12 7 -2 7 10 11 10 22 -3 25 -30 50 -38 81 -25 16 7 26
16 23 21 -6 11 29 12 40 2 14 -14 36 -11 34 5 -2 11 5 18 20 20 13 2 32 17 42
34 l18 31 26 -26 c25 -25 26 -25 36 -6 11 20 40 26 40 8 0 -8 14 -9 45 -5 31
5 51 3 67 -7 33 -21 84 -30 105 -19 12 7 25 6 44 -3 15 -8 29 -11 33 -8 3 3
15 -2 25 -11 19 -17 20 -17 31 3 12 24 40 28 40 7 0 -16 27 -29 32 -16 4 13
89 -10 113 -31 31 -27 69 -33 103 -15 27 14 31 14 36 0 5 -13 9 -14 21 -4 8 7
15 18 15 25 0 18 32 28 42 13 4 -7 5 -25 2 -40 -6 -28 -5 -28 45 -28 30 0 51
-5 51 -11 0 -6 9 -8 20 -4 15 5 18 3 14 -8 -3 -9 9 -30 30 -52 27 -27 45 -37
73 -39 31 -2 37 -6 35 -21 -3 -14 1 -16 17 -12 21 5 93 -12 107 -26 4 -4 20
-7 35 -7 19 0 26 -5 25 -17 0 -10 9 -19 24 -23 14 -3 26 -14 28 -25 2 -11 11
-25 19 -32 8 -6 12 -16 9 -21 -3 -6 11 -12 32 -15 20 -3 51 -8 69 -11 36 -6
77 12 100 43 8 12 19 19 24 15 5 -3 18 5 29 18 20 23 20 23 35 4 10 -13 15
-15 15 -6 0 16 14 4 16 -13 0 -7 2 -19 2 -28 1 -8 18 -21 37 -29 24 -9 31 -16
23 -22 -10 -6 -9 -8 2 -9 8 -1 21 -1 28 0 8 1 12 -12 12 -37 0 -36 3 -40 31
-46 26 -5 29 -9 20 -20 -10 -12 -6 -16 25 -25 20 -6 41 -8 46 -5 4 3 8 -11 8
-30 0 -34 2 -36 35 -36 27 0 35 -4 35 -18 0 -29 28 -60 60 -67 24 -5 28 -10
20 -20 -8 -9 -5 -14 12 -19 19 -5 20 -8 9 -15 -12 -7 -12 -13 -3 -24 7 -7 9
-17 5 -20 -3 -4 4 -19 18 -33 22 -23 23 -26 6 -35 -9 -6 -17 -15 -17 -20 0 -6
4 -8 9 -4 14 8 24 -14 26 -57 1 -20 8 -45 16 -55 9 -11 10 -14 2 -9 -20 11
-15 -2 14 -42 15 -20 23 -34 19 -30 -14 12 -36 -12 -36 -37 0 -23 21 -48 36
-43 5 1 18 -3 29 -9 12 -7 35 -9 54 -5 27 6 36 15 49 47 25 66 49 92 109 121
48 22 65 25 109 20 64 -7 97 -21 146 -59 28 -21 39 -25 43 -15 3 7 4 294 3
638 l-3 625 -2358 3 -2357 2 2 -1072z"/>
<path d="M4026 4055 c4 -8 8 -15 10 -15 2 0 4 7 4 15 0 8 -4 15 -10 15 -5 0
-7 -7 -4 -15z"/>
<path d="M4407 3463 c-13 -12 -7 -33 8 -33 8 0 15 9 15 20 0 20 -11 26 -23 13z"/>
<path d="M4409 3398 c-1 -7 -1 -16 -1 -19 1 -4 -8 -4 -20 -1 -18 4 -20 2 -14
-21 6 -25 -8 -64 -28 -78 -5 -4 -7 -21 -4 -38 3 -22 1 -28 -6 -21 -14 14 -36
12 -36 -4 0 -7 -11 -21 -24 -29 -13 -9 -29 -35 -36 -59 -9 -29 -24 -52 -46
-68 -19 -14 -34 -30 -34 -35 0 -6 -13 -26 -30 -45 -16 -19 -29 -43 -30 -53 0
-9 -4 -16 -8 -15 -4 2 -28 -14 -52 -36 -25 -21 -65 -46 -90 -55 -37 -14 -45
-21 -46 -43 -1 -15 5 -29 14 -33 8 -3 12 -12 8 -22 -4 -10 2 -24 14 -35 20
-19 20 -21 5 -45 -16 -23 -15 -26 9 -58 l26 -34 -50 21 c-28 11 -53 18 -56 15
-3 -3 -1 -27 6 -54 6 -26 13 -63 14 -81 2 -19 7 -37 13 -40 5 -4 12 -15 16
-25 6 -15 2 -18 -16 -15 -32 4 -60 -21 -44 -40 10 -13 8 -14 -11 -8 -22 7 -31
-7 -12 -19 14 -9 3 -24 -25 -35 -17 -7 -21 -14 -18 -34 4 -19 1 -26 -11 -26
-22 0 -20 -17 4 -32 24 -15 26 -28 5 -28 -17 0 -15 -34 3 -52 7 -7 12 -18 12
-25 0 -7 5 -13 10 -13 6 0 10 -11 10 -24 0 -17 10 -31 30 -43 34 -20 40 -38
10 -28 -21 7 -28 -9 -9 -20 6 -4 8 -13 5 -21 -3 -7 5 -24 17 -37 22 -24 35
-30 187 -87 89 -33 96 -36 172 -69 26 -12 49 -21 52 -21 14 0 217 -104 227
-116 6 -8 16 -14 21 -14 14 0 209 -134 260 -180 25 -22 48 -36 52 -33 10 10 7
1961 -3 1967 -5 3 -16 -5 -25 -19 -24 -37 -94 -73 -158 -80 -53 -7 -61 -5
-105 24 -75 48 -103 77 -114 115 -9 34 -38 51 -40 24z"/>
<path d="M2018 3149 c-7 -5 -22 -9 -32 -9 -24 0 -144 -77 -155 -99 -5 -9 -4
-44 2 -78 12 -80 52 -124 132 -149 70 -23 146 -8 196 37 19 17 44 35 56 39 29
12 40 75 19 115 -9 17 -16 35 -16 42 0 31 -37 74 -70 82 -19 4 -54 12 -77 18
-23 5 -48 6 -55 2z m126 -144 c3 -8 1 -15 -4 -15 -6 0 -10 7 -10 15 0 8 2 15
4 15 2 0 6 -7 10 -15z"/>
<path d="M3088 2929 c-32 -33 -58 -65 -58 -71 0 -17 41 -68 54 -68 7 0 29 -11
49 -24 19 -13 43 -26 54 -28 10 -2 18 -10 18 -18 0 -47 74 -17 111 45 70 120
16 225 -116 225 -54 0 -55 -1 -112 -61z m94 19 c-7 -7 -12 -8 -12 -2 0 6 3 14
7 17 3 4 9 5 12 2 2 -3 -1 -11 -7 -17z m-12 -47 c0 -5 -7 -11 -15 -15 -9 -3
-15 0 -15 9 0 8 7 15 15 15 8 0 15 -4 15 -9z"/>
<path d="M2657 2583 c-4 -3 -39 -8 -79 -9 -39 -2 -76 -8 -82 -14 -5 -5 -11
-38 -12 -74 l-3 -64 47 -22 c26 -12 54 -28 62 -35 8 -8 36 -15 61 -16 67 -4
131 47 135 106 0 11 4 34 8 52 6 27 4 34 -18 48 -14 10 -32 15 -40 12 -8 -3
-22 1 -33 8 -20 16 -36 19 -46 8z"/>
<path d="M147 2448 c-3 -23 -4 -551 -3 -1173 l1 -1130 1045 -2 c574 -1 1051 2
1058 6 8 5 30 4 49 -2 27 -8 36 -8 42 2 6 9 17 11 32 6 30 -10 469 -12 469 -3
0 4 14 2 32 -3 20 -5 34 -5 38 1 3 5 11 5 18 1 14 -8 301 -5 309 3 3 3 -13 10
-35 16 -51 13 -104 40 -80 40 9 0 19 -4 23 -9 3 -6 13 -10 23 -10 30 1 51 -7
70 -25 11 -9 38 -18 62 -19 35 -2 43 1 46 17 4 28 -6 46 -27 46 -10 0 -19 4
-19 9 0 5 -3 18 -7 28 -7 17 -5 17 22 -1 17 -11 44 -33 60 -50 25 -25 27 -29
9 -24 -13 3 -21 0 -21 -8 0 -7 12 -13 26 -13 14 0 77 -2 139 -4 61 -2 112 0
112 5 0 5 5 6 11 3 16 -11 68 -12 134 -5 46 6 55 9 38 15 -13 4 -23 11 -23 16
0 15 16 10 35 -11 11 -12 28 -20 39 -18 12 1 27 -1 34 -5 28 -18 33 6 6 34
-24 25 -25 29 -9 29 15 0 16 3 7 12 -7 7 -12 16 -12 21 0 5 18 -8 40 -29 22
-22 40 -44 40 -50 0 -16 19 -21 59 -14 31 4 33 6 17 19 -13 11 -20 11 -28 3
-17 -17 -41 -15 -35 2 3 7 -10 28 -29 47 -24 23 -32 39 -28 52 4 11 0 24 -7
29 -11 7 -11 11 -1 15 6 2 9 9 6 14 -3 6 -12 5 -22 -3 -12 -10 -16 -10 -20 0
-9 28 -33 41 -70 38 -39 -4 -66 9 -55 27 4 6 0 8 -10 4 -11 -4 -14 -2 -10 9 7
19 -6 18 -29 -3 -10 -9 -18 -12 -18 -7 0 5 9 15 20 22 16 10 29 9 72 -8 28
-11 54 -17 57 -15 5 6 7 4 -44 30 -22 12 -40 27 -39 36 1 11 -6 15 -25 12 -21
-4 -23 -2 -11 7 13 10 12 11 -3 6 -10 -3 -22 -6 -27 -6 -5 0 -16 -7 -24 -16
-15 -14 -16 -14 -16 5 0 14 -5 19 -15 15 -19 -8 -19 -28 0 -47 19 -20 13 -23
-34 -19 -38 4 -39 5 -30 30 9 23 7 30 -12 45 -13 10 -35 21 -51 24 -30 6 -39
23 -12 23 30 0 94 -47 94 -70 0 -5 5 -10 10 -10 6 0 10 10 10 21 0 19 4 21 36
16 35 -6 36 -6 21 16 -8 12 -24 22 -36 21 -12 0 -21 5 -21 11 0 7 -11 10 -30
7 -19 -3 -30 0 -30 7 0 8 -11 10 -29 8 -20 -4 -31 0 -35 10 -10 25 -7 27 14 8
15 -14 20 -15 19 -4 0 21 -57 62 -75 55 -12 -5 -15 -2 -10 11 4 10 4 14 0 10
-4 -4 -18 0 -31 8 -13 9 -23 13 -23 10 0 -8 -64 26 -72 38 -9 15 -51 17 -60 3
-5 -7 -8 -4 -8 7 0 10 -4 16 -8 13 -16 -10 -30 9 -16 22 8 7 14 8 14 2 0 -5 9
-10 20 -10 11 0 20 7 20 15 0 8 -9 15 -19 15 -11 0 -21 6 -24 13 -3 9 -9 9
-26 -1 -23 -13 -28 -3 -9 16 17 17 -11 16 -37 -1 -16 -11 -27 -11 -55 -1 l-35
13 40 1 c22 0 51 3 64 7 23 6 23 6 -10 25 l-34 19 35 -6 c31 -4 36 -2 36 14 0
20 -59 54 -91 54 -8 0 -15 6 -15 14 0 7 -10 14 -22 14 -13 1 -34 3 -48 5 -93
12 -101 12 -137 -8 -22 -11 -67 -22 -107 -25 l-70 -6 28 -22 29 -23 -30 -6
c-17 -4 -34 -6 -39 -5 -22 4 -34 -2 -34 -16 0 -8 4 -15 9 -15 5 0 12 -7 15
-16 4 -12 2 -15 -9 -10 -9 3 -15 0 -15 -9 0 -8 -3 -14 -7 -13 -5 2 -9 0 -11
-4 -5 -14 -53 -58 -63 -58 -6 0 -8 3 -5 8 6 10 -83 46 -92 37 -4 -3 2 -14 13
-22 15 -12 16 -14 3 -10 -11 4 -19 -1 -23 -13 -5 -15 -12 -18 -36 -13 -17 3
-29 1 -29 -5 0 -6 -10 -12 -22 -14 -26 -3 -37 -41 -18 -63 8 -10 8 -14 -2 -18
-10 -4 -11 -7 0 -18 16 -18 15 -29 -3 -29 -8 0 -15 -3 -15 -7 0 -5 -37 -9 -83
-10 -84 -1 -143 -17 -163 -43 -10 -12 -15 -12 -27 -1 -9 7 -28 14 -42 15 -14
2 -32 11 -39 21 -7 11 -31 19 -62 22 -27 3 -73 14 -102 24 -32 11 -50 14 -46
8 9 -16 -13 -3 -43 24 -12 11 -28 17 -36 14 -9 -3 -18 7 -26 29 -7 19 -18 34
-25 34 -7 0 -39 24 -72 54 -32 30 -62 52 -66 50 -4 -3 -8 1 -8 9 0 7 -9 32
-20 56 -23 45 -56 65 -96 55 -17 -4 -24 -2 -24 7 0 8 -14 20 -30 28 -24 10
-29 18 -25 32 5 15 -6 31 -42 63 -29 27 -52 41 -57 35 -15 -14 -26 -11 -26 7
0 8 5 12 10 9 6 -4 10 7 10 25 0 26 -4 31 -30 37 -20 3 -30 12 -30 23 0 23
-17 36 -60 47 -25 7 -35 15 -35 29 0 10 -6 25 -12 32 -7 7 -13 21 -12 30 0 11
2 12 6 5 2 -7 11 -13 18 -13 8 0 18 -7 23 -16 5 -9 14 -14 21 -10 14 9 15 66
1 66 -5 0 -10 5 -10 11 0 6 7 9 15 5 8 -3 15 -1 15 5 0 6 4 8 9 4 14 -8 23 12
25 58 2 43 31 101 46 92 9 -5 80 72 80 87 0 4 29 8 64 8 60 0 66 2 85 29 12
16 21 34 21 41 0 6 5 8 10 5 5 -3 10 -2 10 3 0 18 -13 21 -27 6 -9 -9 -28 -13
-50 -10 -29 3 -34 1 -30 -15 4 -16 -3 -18 -67 -19 -123 -3 -140 -2 -170 9 -27
11 -28 12 -11 25 18 13 17 14 -8 15 -52 3 -62 4 -72 13 -25 20 -128 67 -136
62 -5 -3 -9 -1 -9 5 0 16 -28 1 -33 -17 -3 -13 -5 -11 -6 4 -1 19 -21 32 -48
32 -3 0 -9 4 -12 9 -3 5 -17 14 -31 21 -14 7 -45 24 -70 37 -24 14 -50 23 -57
21 -15 -6 -73 22 -73 35 0 5 -33 25 -74 44 -83 39 -190 134 -184 163 2 9 10
16 16 15 8 -2 12 10 12 32 0 19 5 35 11 35 7 0 9 12 6 33 -2 17 -1 42 4 54 7
19 0 28 -54 68 -34 25 -71 52 -82 60 -10 8 -23 15 -29 15 -5 0 -17 7 -27 16
-16 15 -18 13 -22 -28z m33 -93 c0 -8 -4 -15 -10 -15 -5 0 -10 7 -10 15 0 8 5
15 10 15 6 0 10 -7 10 -15z m30 -5 c0 -5 -4 -10 -10 -10 -5 0 -10 5 -10 10 0
6 5 10 10 10 6 0 10 -4 10 -10z m16 -28 c-18 -16 -19 -16 -12 1 3 10 6 24 6
30 0 8 4 7 12 -1 10 -9 8 -16 -6 -30z m-43 -210 c-3 -12 -9 -19 -14 -16 -5 3
-4 14 2 25 13 26 20 21 12 -9z m777 -512 c0 -5 -7 -7 -15 -4 -8 4 -15 8 -15
10 0 2 7 4 15 4 8 0 15 -4 15 -10z m-75 -60 c3 -5 1 -10 -4 -10 -6 0 -11 5
-11 10 0 6 2 10 4 10 3 0 8 -4 11 -10z m-165 -160 c0 -5 -7 -7 -15 -4 -8 4
-15 8 -15 10 0 2 7 4 15 4 8 0 15 -4 15 -10z m-23 -42 c-3 -8 -6 -5 -6 6 -1
11 2 17 5 13 3 -3 4 -12 1 -19z m283 2 c0 -5 -5 -10 -11 -10 -5 0 -7 5 -4 10
3 6 8 10 11 10 2 0 4 -4 4 -10z m60 -52 c0 -13 -23 -5 -28 10 -2 7 2 10 12 6
9 -3 16 -11 16 -16z m-325 -28 c3 -5 1 -10 -4 -10 -6 0 -11 5 -11 10 0 6 2 10
4 10 3 0 8 -4 11 -10z m319 -114 c-3 -9 3 -17 15 -21 13 -4 18 -11 14 -22 -5
-12 -2 -15 10 -10 19 7 23 -8 5 -19 -6 -4 -16 0 -22 8 -6 8 -24 14 -41 13 -45
-2 -47 3 -13 35 35 34 40 36 32 16z m2111 -236 c-3 -6 4 -10 16 -10 12 0 20
-3 16 -6 -3 -4 -18 -3 -34 0 -21 6 -24 9 -12 17 18 11 22 11 14 -1z m-110 -39
c-2 -4 -18 -6 -34 -3 -17 2 -29 7 -26 11 2 4 18 6 34 3 17 -2 29 -7 26 -11z
m75 -2 c13 -9 13 -10 -2 -6 -16 6 -43 -15 -33 -25 10 -10 -32 -16 -46 -7 -11
7 -10 9 4 9 9 0 17 6 17 14 0 12 11 19 40 25 3 0 12 -4 20 -10z m-52 -118 c3
-8 -1 -12 -9 -9 -7 2 -15 10 -17 17 -3 8 1 12 9 9 7 -2 15 -10 17 -17z m77 9
c3 -5 1 -10 -4 -10 -6 0 -11 5 -11 10 0 6 2 10 4 10 3 0 8 -4 11 -10z m-190
-10 c-3 -5 -12 -10 -18 -10 -7 0 -6 4 3 10 19 12 23 12 15 0z m55 -4 c0 -2
-11 -6 -25 -8 -13 -3 -22 -1 -19 3 5 9 44 13 44 5z m237 -48 c-3 -8 -6 -5 -6
6 -1 11 2 17 5 13 3 -3 4 -12 1 -19z m-192 2 c3 -5 -3 -10 -14 -10 -12 0 -21
5 -21 10 0 6 6 10 14 10 8 0 18 -4 21 -10z m-164 -23 c-1 -12 -15 -9 -19 4 -3
6 1 10 8 8 6 -3 11 -8 11 -12z m283 7 c21 -8 21 -24 0 -24 -8 0 -13 4 -10 9 4
5 0 12 -6 14 -7 3 -10 6 -6 6 3 1 13 -2 22 -5z m-84 -14 c0 -5 -4 -10 -9 -10
-6 0 -13 5 -16 10 -3 6 1 10 9 10 9 0 16 -4 16 -10z m-83 -15 c0 -10 -6 -14
-14 -10 -8 3 -17 5 -19 5 -3 0 -2 5 1 10 10 16 32 12 32 -5z m394 -11 c9 -11
15 -11 25 -3 11 9 14 7 14 -11 0 -12 10 -30 23 -41 12 -10 16 -18 10 -19 -7 0
-13 -7 -13 -15 0 -8 6 -15 13 -16 6 0 22 -13 35 -30 23 -29 23 -29 3 -29 -12
0 -21 5 -21 10 0 6 -7 10 -15 10 -9 0 -25 9 -37 20 -12 11 -28 20 -35 20 -7 0
-13 9 -13 20 0 11 -5 20 -11 20 -6 0 -9 -7 -6 -14 4 -10 1 -13 -7 -10 -8 3
-17 1 -21 -5 -11 -19 -60 -12 -93 12 l-31 24 29 0 c26 0 34 -7 32 -27 0 -5 29
-5 59 -1 3 1 6 14 7 31 0 21 -5 31 -19 35 -11 4 -18 9 -16 11 2 3 21 -3 41
-12 37 -18 65 -10 33 10 -49 30 -53 34 -25 29 15 -3 33 -12 39 -19z m-691 12
c0 -3 -4 -8 -10 -11 -5 -3 -10 -1 -10 4 0 6 5 11 10 11 6 0 10 -2 10 -4z m67
-2 c-3 -3 -12 -4 -19 -1 -8 3 -5 6 6 6 11 1 17 -2 13 -5z m524 -7 c-5 -7 -22
-14 -37 -15 -25 -2 -26 -1 -10 11 24 17 61 20 47 4z m-366 -7 c3 -5 -1 -10
-10 -10 -9 0 -13 5 -10 10 3 6 8 10 10 10 2 0 7 -4 10 -10z m188 -17 c-3 -7
-11 -13 -18 -13 -7 0 -15 6 -18 13 -3 7 4 12 18 12 14 0 21 -5 18 -12z m272
-92 c10 -17 -12 -21 -25 -6 -10 12 -10 15 3 15 9 0 18 -4 22 -9z m-520 -29
c-3 -3 -11 0 -18 7 -9 10 -8 11 6 5 10 -3 15 -9 12 -12z m75 8 c8 -5 11 -10 5
-10 -5 0 -17 5 -25 10 -8 5 -10 10 -5 10 6 0 17 -5 25 -10z m158 -18 c10 -13
12 -13 12 -1 0 9 3 10 8 3 4 -6 18 -17 30 -23 36 -19 17 -26 -20 -7 -44 21
-91 59 -63 50 11 -4 26 -14 33 -22z m319 12 c-3 -3 -12 -4 -19 -1 -8 3 -5 6 6
6 11 1 17 -2 13 -5z m-42 -18 c14 -13 10 -26 -7 -26 -5 0 -6 5 -3 10 3 6 1 10
-4 10 -6 0 -11 5 -11 10 0 14 9 12 25 -4z m-444 -8 c34 -12 59 -30 59 -43 0
-4 -11 0 -25 9 -14 9 -25 13 -25 10 0 -4 -8 0 -17 8 -10 9 -25 18 -33 21 -30
11 8 7 41 -5z m108 -8 c-10 -7 -10 -11 0 -24 16 -19 3 -20 -21 -2 -22 16 -23
26 -3 26 8 0 15 5 15 11 0 5 5 7 11 3 8 -4 7 -9 -2 -14z m156 2 c-3 -3 -11 0
-18 7 -9 10 -8 11 6 5 10 -3 15 -9 12 -12z m140 -3 c11 -17 -1 -21 -15 -4 -8
9 -8 15 -2 15 6 0 14 -5 17 -11z m120 1 c3 -5 1 -10 -4 -10 -6 0 -11 5 -11 10
0 6 2 10 4 10 3 0 8 -4 11 -10z m-535 -41 c0 -15 -17 -10 -24 6 -3 8 -13 15
-21 15 -9 0 -13 4 -10 10 7 11 55 -16 55 -31z m190 9 c0 -12 -10 -9 -26 6 -20
21 -17 28 6 14 11 -7 20 -16 20 -20z m430 -3 c-16 -19 -4 -37 47 -72 26 -18
42 -33 35 -33 -18 0 -27 4 -25 12 2 4 -6 9 -15 13 -10 3 -32 19 -48 36 -22 23
-26 32 -15 38 7 5 11 14 7 20 -5 7 -1 9 9 5 11 -5 13 -10 5 -19z m178 16 c10
-6 7 -12 -12 -25 -14 -9 -26 -12 -26 -7 0 5 5 13 10 16 6 4 8 11 5 16 -8 11 5
12 23 0z m-219 -34 c15 -41 14 -43 -8 -19 -10 12 -26 22 -35 22 -9 0 -16 6
-16 14 0 8 10 14 24 14 19 0 28 -8 35 -31z m-1004 13 c3 -5 1 -10 -4 -10 -6 0
-11 5 -11 10 0 6 2 10 4 10 3 0 8 -4 11 -10z m385 -16 c0 -2 -7 -4 -15 -4 -8
0 -15 4 -15 10 0 5 7 7 15 4 8 -4 15 -8 15 -10z m345 6 c3 -5 1 -10 -4 -10 -6
0 -11 5 -11 10 0 6 2 10 4 10 3 0 8 -4 11 -10z m-59 -15 c10 -8 15 -14 9 -14
-5 0 -19 6 -29 14 -11 8 -15 15 -10 15 6 0 19 -7 30 -15z m149 4 c11 -17 -1
-21 -15 -4 -8 9 -8 15 -2 15 6 0 14 -5 17 -11z m-328 -15 c-3 -3 -12 -4 -19
-1 -8 3 -5 6 6 6 11 1 17 -2 13 -5z m71 -19 c-3 -3 -9 2 -12 12 -6 14 -5 15 5
6 7 -7 10 -15 7 -18z m72 6 c0 -5 8 -12 18 -14 13 -4 12 -5 -4 -6 -12 0 -24 6
-28 14 -3 8 -1 15 4 15 6 0 10 -4 10 -9z m345 -11 c3 -11 4 -24 1 -29 -8 -12
-46 -2 -46 11 0 6 9 8 20 5 17 -4 18 -2 9 14 -6 12 -6 19 0 19 5 0 12 -9 16
-20z m-60 0 c3 -5 -1 -10 -10 -10 -9 0 -13 5 -10 10 3 6 8 10 10 10 2 0 7 -4
10 -10z m184 -53 c19 -15 32 -30 29 -32 -6 -6 -96 67 -102 83 -6 14 10 2 73
-51z m-709 43 c8 -5 11 -10 5 -10 -5 0 -17 5 -25 10 -8 5 -10 10 -5 10 6 0 17
-5 25 -10z m127 4 c-3 -3 -12 -4 -19 -1 -8 3 -5 6 6 6 11 1 17 -2 13 -5z m363
-16 c0 -5 16 -16 35 -24 31 -13 38 -13 60 2 14 9 25 20 25 24 0 4 18 -9 40
-30 51 -48 51 -57 0 -25 -27 17 -37 20 -34 10 4 -9 0 -15 -9 -15 -8 0 -17 6
-20 13 -2 7 -8 8 -13 3 -5 -5 -4 -11 4 -13 6 -3 12 -14 12 -26 l0 -21 -16 22
c-8 12 -25 22 -36 22 -12 0 -19 3 -16 6 4 3 -10 21 -30 40 -21 19 -29 31 -19
28 9 -3 17 -10 17 -16z m-335 2 c3 -5 1 -10 -4 -10 -6 0 -11 5 -11 10 0 6 2
10 4 10 3 0 8 -4 11 -10z m281 -5 c9 -8 11 -15 6 -15 -5 0 -15 7 -22 15 -7 8
-9 15 -6 15 4 0 14 -7 22 -15z m574 -44 c29 -25 32 -30 15 -31 -11 0 -30 12
-42 27 -13 14 -23 23 -23 19 0 -4 -6 -1 -14 6 -9 9 -10 15 -3 20 11 6 14 5 67
-41z m-170 35 c0 -3 -4 -8 -10 -11 -5 -3 -10 -1 -10 4 0 6 5 11 10 11 6 0 10
-2 10 -4z m-715 -16 c3 -6 -1 -7 -9 -4 -18 7 -21 14 -7 14 6 0 13 -4 16 -10z
m800 -20 c3 -5 2 -10 -4 -10 -5 0 -13 5 -16 10 -3 6 -2 10 4 10 5 0 13 -4 16
-10z m-665 -30 c17 -17 30 -36 28 -43 -2 -7 -20 7 -42 31 -44 48 -33 58 14 12z
m-670 5 c11 -13 10 -14 -4 -9 -9 3 -16 10 -16 15 0 13 6 11 20 -6z m756 -5 c8
0 14 -4 14 -10 0 -13 -11 -12 -32 4 -10 7 -14 16 -11 20 4 4 9 2 11 -3 2 -6
10 -11 18 -11z m558 -9 c-2 -3 -12 3 -22 13 -16 17 -16 18 5 5 12 -7 20 -15
17 -18z m-1489 9 c3 -6 -1 -7 -9 -4 -18 7 -21 14 -7 14 6 0 13 -4 16 -10z
m1080 0 c3 -5 1 -10 -4 -10 -6 0 -11 5 -11 10 0 6 2 10 4 10 3 0 8 -4 11 -10z
m149 4 c9 -3 16 -10 16 -15 0 -14 -26 -10 -40 6 -13 16 -3 20 24 9z m318 -7
c14 -7 22 -19 20 -26 -3 -8 0 -11 7 -7 6 4 11 2 11 -3 0 -19 -15 -12 -45 19
-31 33 -30 37 7 17z m-1387 -48 c4 -5 -10 -2 -29 8 -20 9 -36 23 -36 31 0 10
8 8 30 -8 16 -11 32 -25 35 -31z m1139 35 c3 -8 2 -12 -4 -9 -6 3 -10 10 -10
16 0 14 7 11 14 -7z m84 -5 c-2 -6 -8 -10 -13 -10 -5 0 -11 4 -13 10 -2 6 4
11 13 11 9 0 15 -5 13 -11z m-1343 -9 c3 -5 1 -10 -4 -10 -6 0 -11 5 -11 10 0
6 2 10 4 10 3 0 8 -4 11 -10z m645 -12 c0 -6 -6 -5 -15 2 -8 7 -15 14 -15 16
0 2 7 1 15 -2 8 -4 15 -11 15 -16z m420 12 c0 -5 -4 -10 -10 -10 -5 0 -10 5
-10 10 0 6 5 10 10 10 6 0 10 -4 10 -10z m40 -5 c7 -9 8 -15 2 -15 -5 0 -12 7
-16 15 -3 8 -4 15 -2 15 2 0 9 -7 16 -15z m58 -10 c-3 -3 -9 2 -12 12 -6 14
-5 15 5 6 7 -7 10 -15 7 -18z m-787 -17 c16 -30 7 -29 -26 3 -26 26 -27 28 -7
22 13 -3 27 -14 33 -25z m914 23 c3 -5 1 -12 -5 -16 -5 -3 -10 1 -10 9 0 18 6
21 15 7z m-1431 -16 c11 -8 17 -18 13 -21 -3 -3 -16 3 -28 15 -26 24 -14 28
15 6z m176 5 c0 -5 -2 -10 -4 -10 -3 0 -8 5 -11 10 -3 6 -1 10 4 10 6 0 11 -4
11 -10z m1492 -31 c9 -9 14 -19 11 -23 -5 -5 -63 51 -63 61 0 6 28 -14 52 -38z
m-1567 21 c3 -6 -1 -7 -9 -4 -18 7 -21 14 -7 14 6 0 13 -4 16 -10z m786 -12
c11 -11 17 -23 14 -26 -4 -5 -45 36 -45 45 0 9 15 1 31 -19z m180 4 c-7 -2
-18 1 -23 6 -8 8 -4 9 13 5 13 -4 18 -8 10 -11z m-446 -22 c3 -5 2 -10 -4 -10
-5 0 -13 5 -16 10 -3 6 -2 10 4 10 5 0 13 -4 16 -10z m930 -10 c-3 -5 -12 -7
-20 -3 -21 7 -19 13 6 13 11 0 18 -4 14 -10z m30 0 c3 -5 1 -10 -4 -10 -6 0
-11 5 -11 10 0 6 2 10 4 10 3 0 8 -4 11 -10z"/>
<path d="M2655 2280 c-3 -5 -1 -10 4 -10 6 0 11 5 11 10 0 6 -2 10 -4 10 -3 0
-8 -4 -11 -10z"/>
<path d="M1642 1819 c2 -7 10 -15 17 -17 8 -3 12 1 9 9 -2 7 -10 15 -17 17 -8
3 -12 -1 -9 -9z"/>
<path d="M1615 1786 c-11 -8 -14 -15 -8 -19 6 -4 16 0 23 8 17 21 8 28 -15 11z"/>
<path d="M1491 1724 c0 -11 3 -14 6 -6 3 7 2 16 -1 19 -3 4 -6 -2 -5 -13z"/>
<path d="M1147 1313 c-4 -3 -7 -11 -7 -17 0 -6 5 -5 12 2 6 6 9 14 7 17 -3 3
-9 2 -12 -2z"/>
<path d="M3218 923 c6 -2 18 -2 25 0 6 3 1 5 -13 5 -14 0 -19 -2 -12 -5z"/>
<path d="M3225 850 c3 -5 13 -10 21 -10 8 0 12 5 9 10 -3 6 -13 10 -21 10 -8
0 -12 -4 -9 -10z"/>
<path d="M3500 701 c0 -10 30 -24 37 -17 3 2 -5 9 -16 16 -12 6 -21 7 -21 1z"/>
<path d="M3615 640 c3 -5 8 -10 11 -10 2 0 4 5 4 10 0 6 -5 10 -11 10 -5 0 -7
-4 -4 -10z"/>
<path d="M3648 623 c7 -3 16 -2 19 1 4 3 -2 6 -13 5 -11 0 -14 -3 -6 -6z"/>
<path d="M3590 610 c0 -5 7 -10 16 -10 8 0 12 5 9 10 -3 6 -10 10 -16 10 -5 0
-9 -4 -9 -10z"/>
<path d="M3680 551 c0 -12 39 -25 47 -17 4 3 -1 6 -10 6 -9 0 -17 5 -17 10 0
6 -4 10 -10 10 -5 0 -10 -4 -10 -9z"/>
<path d="M3590 440 c0 -5 4 -10 9 -10 6 0 13 5 16 10 3 6 -1 10 -9 10 -9 0
-16 -4 -16 -10z"/>
<path d="M3990 209 c0 -5 5 -7 10 -4 6 3 10 8 10 11 0 2 -4 4 -10 4 -5 0 -10
-5 -10 -11z"/>
</g>
</svg>
